<svg width="401" height="79" viewBox="0 0 401 79" fill="none" xmlns="http://www.w3.org/2000/svg">
<path d="M0.0750001 58V55.45L11.7 54.25H14.025L26.025 55.45V58H0.0750001ZM6.6 58C6.825 49.45 6.825 40.6 6.825 31.675V28.375C6.825 19.525 6.825 10.75 6.6 1.975H19.875C19.575 10.6 19.575 19.45 19.575 28.375V30.625C19.575 40.375 19.575 49.225 19.875 58H6.6ZM13.2 30.925V28.075H46.05V30.925H13.2ZM33.15 58V55.45L45.075 54.25H47.325L59.175 55.45V58H33.15ZM39.375 58C39.675 49.45 39.675 40.6 39.675 30.625V28.375C39.675 19.525 39.675 10.75 39.375 1.975H52.65C52.425 10.6 52.425 19.45 52.425 28.375V31.675C52.425 40.375 52.425 49.225 52.65 58H39.375ZM0.0750001 4.525V1.975H26.025V4.525L14.025 5.65H11.7L0.0750001 4.525ZM33.15 4.525V1.975H59.175V4.525L47.325 5.65H45.075L33.15 4.525ZM80.3168 59.275C67.6418 59.275 58.7168 51.4 58.7168 37.375C58.7168 23.425 68.8418 15.775 79.8668 15.775C91.4918 15.775 97.5668 23.35 97.5668 32.875C97.5668 34.75 97.4168 36.025 97.0418 37.45H63.8918V34.75H81.6668C85.1168 34.75 86.1668 33.025 86.1668 28.375C86.1668 21.7 83.3918 18.4 79.3418 18.4C75.0668 18.4 71.5418 23.425 71.5418 36.25C71.5418 48.775 77.0918 53.95 84.5918 53.95C89.9168 53.95 93.2168 51.7 95.6918 48.175L97.1168 49.15C93.9668 55.675 88.1168 59.275 80.3168 59.275ZM104.387 78.325C100.187 78.325 96.2871 76.075 96.0621 72.475C96.6621 69.1 99.5871 67.6 102.512 67.6C105.512 67.6 107.687 69.4 109.562 71.8L111.887 74.8L109.112 76.75L107.687 75.475C112.337 73.075 115.037 68.875 118.262 61.075L120.587 55.675L121.412 53.425L127.862 35.65L133.862 17.05H137.012L120.662 61.075C115.712 74.2 110.762 78.325 104.387 78.325ZM118.262 64.225L98.4621 17.05H111.587L123.212 49.225L123.662 49.975L118.262 64.225ZM95.7621 19.3V17.05H118.637V19.3L111.587 20.125H103.412L95.7621 19.3ZM125.462 19.3V17.05H140.912V19.3L134.762 20.125H133.337L125.462 19.3ZM137.36 58V55.45L149.435 54.25H150.635V58H137.36ZM144.035 58C144.26 49.45 144.26 40.6 144.26 31V28.525C144.26 19.525 144.26 10.75 144.035 1.975H157.235C157.01 10.6 157.01 19.45 157.01 28.525V31C157.01 40.375 157.01 49.225 157.235 58H144.035ZM150.635 58V55.225H160.46C171.485 55.225 177.935 45.85 177.935 29.95C177.935 13.525 171.485 4.825 160.76 4.825H150.635V1.975H161.885C180.26 1.975 190.985 12.55 190.985 29.8C190.985 47.35 179.51 58 160.61 58H150.635ZM137.36 4.525V1.975H150.635V5.65H149.435L137.36 4.525ZM214.297 59.275C201.397 59.275 193.072 50.5 193.072 37.3C193.072 24.025 202.522 15.775 214.297 15.775C226.147 15.775 235.597 23.875 235.597 37.3C235.597 50.725 227.122 59.275 214.297 59.275ZM214.297 56.65C219.697 56.65 222.622 50.5 222.622 37.45C222.622 24.325 219.697 18.4 214.297 18.4C208.972 18.4 205.972 24.325 205.972 37.45C205.972 50.5 208.972 56.65 214.297 56.65ZM258.514 59.275C247.114 59.275 237.589 51.85 237.589 38.2C237.589 23.5 247.939 15.775 260.389 15.775C268.639 15.775 274.939 21.025 275.839 27.7C275.014 30.4 273.364 31.675 270.814 31.675C267.664 31.675 265.039 29.875 264.814 24.325L263.764 17.125L269.539 20.575C266.764 19.075 264.514 18.4 261.964 18.4C255.289 18.4 250.414 25 250.414 36.55C250.414 47.575 255.664 53.95 263.914 53.95C268.264 53.95 271.789 51.85 274.339 48.325L275.764 49.3C272.089 56.2 266.989 59.275 258.514 59.275ZM287.409 20.125V17.05H302.634V20.125H287.409ZM292.884 59.275C285.234 59.275 281.184 55.825 281.184 47.575C281.184 44.575 281.259 42.4 281.259 39.325V20.125H275.184V17.725L282.984 16.9L281.634 17.8L285.759 4.9H293.484L293.409 18.325V48.475C293.409 52.525 295.284 54.25 298.284 54.25C300.159 54.25 301.434 53.5 303.459 51.85L304.659 53.05C302.409 57.1 298.659 59.275 292.884 59.275ZM324.483 59.275C311.583 59.275 303.258 50.5 303.258 37.3C303.258 24.025 312.708 15.775 324.483 15.775C336.333 15.775 345.783 23.875 345.783 37.3C345.783 50.725 337.308 59.275 324.483 59.275ZM324.483 56.65C329.883 56.65 332.808 50.5 332.808 37.45C332.808 24.325 329.883 18.4 324.483 18.4C319.158 18.4 316.158 24.325 316.158 37.45C316.158 50.5 319.158 56.65 324.483 56.65ZM347.037 58V55.675L355.062 54.85H363.312L371.487 55.675V58H347.037ZM351.912 58C352.137 54.175 352.212 45.4 352.212 40.15V33.925C352.212 28.975 352.137 26.575 351.912 22.975L346.437 22.375V20.575L362.787 15.85L363.762 16.525L364.362 27.325V40.15C364.362 45.4 364.437 54.175 364.587 58H351.912ZM364.362 33.925L361.437 29.05H363.837C365.862 20.35 371.412 15.775 376.212 15.775C379.812 15.775 382.737 17.2 383.487 21.7C383.337 25.15 381.687 27.775 377.937 27.775C375.087 27.775 373.287 26.05 371.337 23.275L369.612 21.1L372.012 21.7C368.187 24.325 365.937 27.7 364.362 33.925ZM393.514 59.2C389.539 59.2 386.389 56.125 386.389 52.15C386.389 48.25 389.539 45.1 393.514 45.1C397.639 45.1 400.789 48.25 400.789 52.15C400.789 56.125 397.639 59.2 393.514 59.2ZM393.514 0.924997C397.939 0.924997 400.789 3.475 400.789 8.125C400.789 11.725 399.664 17.125 396.664 28.225L394.714 38.35H392.314L390.439 28.225C387.439 17.125 386.314 11.725 386.314 8.125C386.314 3.475 389.089 0.924997 393.514 0.924997Z" fill="#3A4CA8"/>
</svg>
