<svg width="134" height="34" viewBox="0 0 134 34" fill="none" xmlns="http://www.w3.org/2000/svg">
<path d="M16.9008 2.1394C25.7004 2.1394 32.8528 9.24843 32.8528 18.048C32.8528 26.8476 25.7004 33.9567 16.9008 33.9567C8.10122 33.9567 0.992188 26.8476 0.992188 18.048C0.992188 9.24843 8.10122 2.1394 16.9008 2.1394ZM16.9008 26.6309C21.6257 26.6309 25.4837 22.7729 25.4837 18.048C25.4837 13.3231 21.6257 9.46517 16.9008 9.46517C12.1759 9.46517 8.31796 13.3231 8.31796 18.048C8.31796 22.7729 12.1759 26.6309 16.9008 26.6309ZM52.4179 14.6669V2.18274H59.7436V34H52.4179V21.9927H43.2281V34H35.9024V2.18274H43.2281V14.6669H52.4179ZM68.7336 26.4575C70.8576 26.4575 72.5482 28.1481 72.5482 30.2287C72.5482 32.3094 70.8576 34 68.7336 34C66.6529 34 64.9623 32.3094 64.9623 30.2287C64.9623 28.1481 66.6529 26.4575 68.7336 26.4575ZM72.4181 23.033H65.0923V1.57587H72.4181V23.033ZM90.9879 33.9567C86.8699 33.9567 82.8385 32.4395 79.7175 29.3184C76.7265 26.2408 75.0793 22.3395 75.0793 18.048C75.0793 13.7132 76.7265 9.7686 79.7175 6.77761C85.9596 0.535529 96.0162 0.535529 102.258 6.77761L97.0999 11.936C93.7188 8.55486 88.257 8.59821 84.9192 11.936C83.3153 13.6266 82.405 15.7506 82.405 18.048C82.405 20.3455 83.3153 22.4261 84.9192 24.1167C88.257 27.4545 93.7188 27.4978 97.0999 24.1167L102.258 29.3184C99.1373 32.4395 95.1493 33.9567 90.9879 33.9567ZM117.266 2.1394C126.066 2.1394 133.218 9.24843 133.218 18.048C133.218 26.8476 126.066 33.9567 117.266 33.9567C108.467 33.9567 101.357 26.8476 101.357 18.048C101.357 9.24843 108.467 2.1394 117.266 2.1394ZM117.266 26.6309C121.991 26.6309 125.849 22.7729 125.849 18.048C125.849 13.3231 121.991 9.46517 117.266 9.46517C112.541 9.46517 108.683 13.3231 108.683 18.048C108.683 22.7729 112.541 26.6309 117.266 26.6309Z" fill="#111111"/>
</svg>
